<svg xmlns="http://www.w3.org/2000/svg" viewBox="0 0 960.42 202.97"><defs><style>.cls-1{fill:#65fbd2;}.cls-2{fill:#fff;}</style></defs><g id="Layer_2" data-name="Layer 2"><g id="Layer_1-2" data-name="Layer 1"><ellipse class="cls-1" cx="934.92" cy="179.47" rx="25.5" ry="23.5"/><path class="cls-2" d="M8.15,92.83q8.16-16.31,22.21-25.09A58,58,0,0,1,61.72,59c9.87,0,14.7,0,23.7,3,8,2.67,15,5.48,19,12l.45-13h42.9V201h-42.9l-.45-12c-7,5-8,6-16,9a77.68,77.68,0,0,1-26.95,5,56.88,56.88,0,0,1-31.11-8.91q-14.05-8.9-22.21-25.34T0,130.71Q0,109.14,8.15,92.83ZM96,105.62a29,29,0,0,0-21.71-9.28,29.15,29.15,0,0,0-21.7,9.16q-8.91,9.16-8.9,25.21t8.9,25.47a28.76,28.76,0,0,0,21.7,9.41A29,29,0,0,0,96,156.31q8.9-9.28,8.9-25.35T96,105.62Z"/><path class="cls-2" d="M241.86,160.82,272.21,61h45.67L268.2,201H215.26L165.58,61H211.5Z"/><path class="cls-2" d="M339.07,39.77a21.57,21.57,0,0,1-7.15-16.44,21.85,21.85,0,0,1,7.15-16.68Q346.23,0,357.51,0q11,0,18.19,6.65a21.82,21.82,0,0,1,7.15,16.68,21.53,21.53,0,0,1-7.15,16.44q-7.14,6.65-18.19,6.64Q346.23,46.41,339.07,39.77ZM378.84,61V201h-42.9V61Z"/><path class="cls-2" d="M534.52,75.39q14.67,15.94,14.68,43.78V201H506.54v-76q0-14-7.27-21.82T479.7,95.34q-12.3,0-19.57,7.78t-7.28,21.82v76H410V61h42.9V79.53a45.22,45.22,0,0,1,17.57-14.67,55.72,55.72,0,0,1,24.83-5.4Q519.85,59.46,534.52,75.39Z"/><path class="cls-2" d="M582.19,39.77A21.53,21.53,0,0,1,575,23.33a21.82,21.82,0,0,1,7.15-16.68Q589.33,0,600.63,0q11,0,18.19,6.65A21.85,21.85,0,0,1,626,23.33a21.57,21.57,0,0,1-7.15,16.44q-7.16,6.65-18.19,6.64Q589.34,46.41,582.19,39.77ZM622,61V201h-42.9V61Z"/><path class="cls-2" d="M784.28,141.25h-97.1q1,13,8.41,19.95a25.66,25.66,0,0,0,18.19,6.9q16.05,0,22.33-13.55h45.66a62.71,62.71,0,0,1-12.67,24.84,63.46,63.46,0,0,1-23,17.31A73.74,73.74,0,0,1,715.28,203q-20.56,0-36.63-8.78a62.47,62.47,0,0,1-25.09-25.09q-9-16.31-9-38.14t8.91-38.13a61.67,61.67,0,0,1,25-25.09Q694.45,59,715.28,59q20.33,0,36.13,8.53a61.19,61.19,0,0,1,24.71,24.34q8.91,15.8,8.91,36.88A109.9,109.9,0,0,1,784.28,141.25Zm-43.15-23.83q0-11-7.53-17.57t-18.82-6.52q-10.78,0-18.19,6.27t-9.15,17.82Z"/><path class="cls-2" d="M869.33,66.11a48.56,48.56,0,0,1,25.09-6.65v45.41H882.63q-16.07,0-24.09,6.9t-8,24.21v65h-42.9V61h42.9V84.3A56.61,56.61,0,0,1,869.33,66.11Z"/></g></g></svg>